<svg t="1688125733934" class="icon" viewBox="0 0 1024 1024" version="1.1" xmlns="http://www.w3.org/2000/svg" p-id="1142" width="128" height="128"><path d="M260.736 512H208l80.32-232.704h63.36L432 512h-52.736l-17.216-53.12H277.952l-17.28 53.12z m60.16-179.52h-1.792L290.56 420.48h59.008l-28.544-88.064zM734.848 543.744h29.184v-31.872h-79.36v-42.624h-24.704v42.624H581.696v31.872h28.8c10.688 39.616 24.384 73.472 42.432 101.312a190.72 190.72 0 0 1-74.816 46.848c4.8 7.808 12.352 23.488 15.168 31.552a219.968 219.968 0 0 0 77.824-54.144c21.12 24.192 47.04 42.24 79.232 53.632 3.776-9.472 11.52-24.832 17.28-32.384a174.208 174.208 0 0 1-76.352-46.72c18.432-27.072 32.832-60.096 43.584-100.096z m-27.968 0c-8.448 30.464-19.84 56-34.304 77.184a260.672 260.672 0 0 1-35.648-77.184h69.952z" fill="#000000" fill-opacity=".9" p-id="1143"></path><path d="M177.024 104.192a64 64 0 0 0-64 64v471.424a64 64 0 0 0 64 64h294.912l-50.24 99.968v-99.904h-64v148.672a64 64 0 0 0 64 64H832a64 64 0 0 0 64-64v-512a64 64 0 0 0-64-64H520.704l-12.992-115.264a64 64 0 0 0-63.616-56.896H177.024z m267.072 64l53.056 471.424H177.024V168.192H444.16z m17.536 684.16l90.496-179.904a63.616 63.616 0 0 0 8.576-39.936l-32.832-292.16H832v512H461.632z" fill="#000000" fill-opacity=".9" p-id="1144"></path></svg>